<svg xmlns="http://www.w3.org/2000/svg" version="1.1" xmlns:xlink="http://www.w3.org/1999/xlink" xmlns:svgjs="http://svgjs.dev/svgjs" width="1000" height="212" viewBox="0 0 1000 212"><g transform="matrix(1,0,0,1,-0.6060406501636066,-0.4425385008991327)"><svg viewBox="0 0 396 84" data-background-color="#372597" preserveAspectRatio="xMidYMid meet" height="212" width="1000" xmlns="http://www.w3.org/2000/svg" xmlns:xlink="http://www.w3.org/1999/xlink"><g id="tight-bounds" transform="matrix(1,0,0,1,0.23999209746477845,0.17534589218081464)"><svg viewBox="0 0 395.52 83.64930706253702" height="83.64930706253702" width="395.52"><g><svg viewBox="0 0 551.9631920018414 116.73578715357027" height="83.64930706253702" width="395.52"><g transform="matrix(1,0,0,1,156.44319200184157,37.25071066188458)"><svg viewBox="0 0 395.5199999999999 42.234365829801106" height="42.234365829801106" width="395.5199999999999"><g id="textblocktransform"><svg viewBox="0 0 395.5199999999999 42.234365829801106" height="42.234365829801106" width="395.5199999999999" id="textblock"><g><svg viewBox="0 0 395.5199999999999 42.234365829801106" height="42.234365829801106" width="395.5199999999999"><g transform="matrix(1,0,0,1,0,0)"><svg width="395.5199999999999" viewBox="0.699999988079071 -32.29999923706055 306.66998291015625 32.75" height="42.234365829801106" data-palette-color="#fcfcfc"><path d="M17.1-32.05L27.8 0 23.7 0 22.95-3.2 21.15-8.7 13.95-8.85 7.45-8.7 5.5-3.4 4.7 0 0.7 0 12.45-32.05 17.1-32.05ZM14.3-12L20.05-12.1 14.85-27.9 14.5-27.9 8.7-12.1 14.3-12ZM46.6-12.95Q49.9-7.5 54.9-0.95L54.9-0.95 54.85-0.45Q53.05 0.25 51.15 0.45L51.15 0.45 50.6 0.1Q46.5-6.05 43.25-11.9L43.25-11.9 37.4-11.9 37.4-10 37.6 0 33.55 0 33.8-9.65 33.55-32.05 43.35-32.1Q48.05-32.1 50.62-29.73 53.2-27.35 53.2-22.95L53.2-22.95Q53.2-19.65 51.47-17.03 49.75-14.4 46.6-12.95L46.6-12.95ZM37.6-28.65L37.45-15.3 43.45-15.15Q49.05-16.75 49.05-22.6L49.05-22.6Q49.05-25.65 47.4-27.18 45.75-28.7 42.45-28.8L42.45-28.8 37.6-28.65ZM72.25-32.3Q77.3-32.3 81-29.9L81-29.9 80.2-26.25 79.75-26.15Q76.4-28.95 72.05-28.95L72.05-28.95Q67.3-28.95 64.75-25.68 62.2-22.4 62.2-16.1L62.2-16.1Q62.2-9.75 64.75-6.4 67.3-3.05 71.95-3.05L71.95-3.05Q74.15-3.05 76.32-3.85 78.5-4.65 80.3-6.1L80.3-6.1 80.8-5.85 80.45-2.05Q76.09 0.35 71.59 0.35L71.59 0.35Q65.15 0.35 61.6-3.83 58.05-8 58.05-15.75L58.05-15.75Q58.05-23.7 61.75-28 65.45-32.3 72.25-32.3L72.25-32.3ZM99.24-32.05L109.94 0 105.84 0 105.09-3.2 103.29-8.7 96.09-8.85 89.59-8.7 87.64-3.4 86.84 0 82.84 0 94.59-32.05 99.24-32.05ZM96.44-12L102.19-12.1 96.99-27.9 96.64-27.9 90.84-12.1 96.44-12ZM127.29-32.25Q134.14-32.25 137.79-28.35 141.44-24.45 141.44-17.15L141.44-17.15Q141.44-8.7 137.49-4.2 133.54 0.3 126.14 0.3L126.14 0.3Q124.09 0.3 121.17 0.23 118.24 0.15 115.74 0L115.74 0 115.69 0 115.94-9.65 115.69-32.05 115.74-32.05 127.29-32.25ZM126.79-3.05Q131.89-3.05 134.62-6.38 137.34-9.7 137.34-16.3L137.34-16.3Q137.34-28.9 126.99-28.9L126.99-28.9Q123.84-28.9 119.74-28.7L119.74-28.7 119.54-10 119.69-3.35Q121.24-3.2 123.42-3.13 125.59-3.05 126.79-3.05L126.79-3.05ZM152.09-32.05L151.84-10 152.04 0 147.99 0 148.24-9.65 147.99-32.05 152.09-32.05ZM173.84-32.05L184.54 0 180.44 0 179.69-3.2 177.89-8.7 170.69-8.85 164.19-8.7 162.24-3.4 161.44 0 157.44 0 169.19-32.05 173.84-32.05ZM171.04-12L176.79-12.1 171.59-27.9 171.24-27.9 165.44-12.1 171.04-12ZM208.18-28.7L202.58-28.6 202.48-17.45 207.88-17.35 213.08-17.5 213.38-17.1 213.03-14.05 207.48-14.2 202.43-14.15 202.38-10 202.58 0 198.53 0 198.78-9.65 198.53-32.05 215.58-32.05 215.88-31.65 215.53-28.45 208.18-28.7ZM231.43-32.05L242.13 0 238.03 0 237.28-3.2 235.48-8.7 228.28-8.85 221.78-8.7 219.83-3.4 219.03 0 215.03 0 226.78-32.05 231.43-32.05ZM228.63-12L234.38-12.1 229.18-27.9 228.83-27.9 223.03-12.1 228.63-12ZM260.93-12.95Q264.23-7.5 269.23-0.95L269.23-0.95 269.18-0.45Q267.38 0.25 265.48 0.45L265.48 0.45 264.93 0.1Q260.83-6.05 257.58-11.9L257.58-11.9 251.73-11.9 251.73-10 251.93 0 247.88 0 248.13-9.65 247.88-32.05 257.68-32.1Q262.38-32.1 264.95-29.73 267.53-27.35 267.53-22.95L267.53-22.95Q267.53-19.65 265.8-17.03 264.08-14.4 260.93-12.95L260.93-12.95ZM251.93-28.65L251.78-15.3 257.78-15.15Q263.38-16.75 263.38-22.6L263.38-22.6Q263.38-25.65 261.73-27.18 260.08-28.7 256.78-28.8L256.78-28.8 251.93-28.65ZM304.22-32.05L307.37 0 303.77 0 303.02-9.75 301.32-25.7 300.97-25.7 292.07-3.7 288.77-3.7 280.32-25.7 279.92-25.7 278.22-10.05 277.37 0 273.97 0 277.32-32.05 281.87-32.05 283.52-27.15 290.47-8.9 290.77-8.9 298.07-27.45 299.72-32.05 304.22-32.05Z" opacity="1" transform="matrix(1,0,0,1,0,0)" fill="#fcfcfc" class="wordmark-text-0" data-fill-palette-color="primary" id="text-0"></path></svg></g></svg></g></svg></g></svg></g><g><svg viewBox="0 0 146.47267185420543 116.73578715357027" height="116.73578715357027" width="146.47267185420543"><g><svg xmlns="http://www.w3.org/2000/svg" xmlns:xlink="http://www.w3.org/1999/xlink" version="1.1" x="0" y="0" viewBox="0 10.152000427246094 100 79.697998046875" enable-background="new 0 0 100 100" xml:space="preserve" height="116.73578715357027" width="146.47267185420543" class="icon-icon-0" data-fill-palette-color="accent" id="icon-0"><g fill="#fcfcfc" data-fill-palette-color="accent"><g fill="#fcfcfc" data-fill-palette-color="accent"><path d="M84.107 72.352H15.893L0 89.85h100L84.107 72.352zM33.171 82.354H12.717l2.18-2.513h18.999L33.171 82.354zM39.353 82.354l0.728-2.513h19.838l0.728 2.513H39.353zM66.104 79.842h19.002l2.177 2.514H66.827L66.104 79.842z" fill="#fcfcfc" data-fill-palette-color="accent"></path><g fill="#fcfcfc" data-fill-palette-color="accent"><path d="M51.166 18.255c-0.031 0-0.063 0.001-0.094 0.001-0.028 0-0.061-0.001-0.092-0.001H51.166z" fill="#fcfcfc" data-fill-palette-color="accent"></path><path d="M50.447 10.152c-11.112 0-20.121 9.009-20.121 20.122 0 8.734 5.573 16.146 13.349 18.93l6.771 18.431 6.777-18.431c7.771-2.785 13.346-10.196 13.346-18.93C70.568 19.161 61.559 10.152 50.447 10.152zM58.036 29.938v9.056h-6.451v-5.413h-2.913v5.413h-6.456v-9.056h-2.499l10.411-10.613 3.744 3.818v-1.947h2.915v4.92l3.749 3.822H58.036z" fill="#fcfcfc" data-fill-palette-color="accent"></path></g></g></g></svg></g></svg></g></svg></g><defs></defs></svg><rect width="395.52" height="83.64930706253702" fill="none" stroke="none" visibility="hidden"></rect></g></svg></g></svg>